<?xml version="1.0" standalone="no"?>
<!DOCTYPE svg PUBLIC "-//W3C//DTD SVG 20010904//EN"
 "http://www.w3.org/TR/2001/REC-SVG-20010904/DTD/svg10.dtd">
<svg version="1.0" xmlns="http://www.w3.org/2000/svg"
 width="1080.000000pt" height="1080.000000pt" viewBox="0 0 1080.000000 1080.000000"
 preserveAspectRatio="xMidYMid meet">

<g transform="translate(0.000000,1080.000000) scale(0.100000,-0.100000)"
fill="#000000" stroke="none">
<path d="M0 5400 l0 -5400 5400 0 5400 0 0 5400 0 5400 -5400 0 -5400 0 0
-5400z m3658 924 c22 -15 22 -15 22 -348 0 -376 -5 -410 -66 -471 -41 -41 -80
-48 -70 -12 21 70 26 164 26 456 l0 324 -25 -23 c-72 -68 -106 -226 -66 -314
25 -58 25 -56 5 -56 -26 0 -78 36 -95 67 -57 98 2 263 129 360 49 37 102 44
140 17z m1110 5 c31 -10 31 -12 34 -82 l3 -72 73 -3 73 -3 -3 -32 -3 -32 -75
-5 -75 -5 -3 -196 c-1 -115 2 -208 8 -223 14 -37 37 -43 65 -16 38 35 57 88
66 177 10 100 39 172 86 213 45 40 107 44 154 10 24 -17 28 -17 42 -3 14 14
22 15 57 4 l40 -12 0 -184 c0 -200 7 -235 46 -235 40 0 59 43 56 122 -6 138
38 270 101 308 47 29 108 26 146 -6 22 -19 31 -22 31 -11 0 20 20 26 61 18
l34 -7 5 -179 5 -180 32 55 c18 30 45 86 60 123 26 66 26 69 10 97 -21 35 -21
53 -2 90 21 41 72 51 98 19 10 -12 16 -31 14 -41 -6 -22 10 -23 82 -6 45 10
53 9 71 -7 24 -22 25 -38 5 -130 -31 -147 -11 -256 48 -263 39 -5 56 38 49
129 -9 125 30 248 94 298 35 28 112 29 145 2 22 -18 26 -18 42 -4 14 14 23 14
57 4 l40 -12 0 -184 c0 -101 4 -195 10 -209 15 -40 53 -35 82 12 21 34 23 51
28 217 l5 180 32 3 c62 6 73 -9 74 -101 l0 -82 30 80 c37 97 54 118 89 110 63
-16 67 -24 76 -157 6 -104 9 -118 17 -88 23 86 60 197 73 218 19 29 72 30 108
1 l26 -20 0 -162 c0 -134 3 -168 18 -197 9 -19 25 -36 34 -38 17 -3 24 8 57
91 6 15 15 27 20 27 35 0 7 -122 -38 -162 -41 -37 -81 -36 -124 2 -44 39 -59
89 -66 235 l-6 120 -23 -59 c-13 -33 -30 -105 -39 -160 -21 -132 -18 -126 -51
-126 -51 0 -72 35 -83 141 -6 52 -14 119 -18 149 l-7 55 -17 -33 c-29 -54 -57
-180 -57 -257 0 -79 -9 -95 -53 -95 -39 0 -67 17 -67 40 0 10 -4 22 -10 25 -5
3 -10 2 -10 -3 0 -5 -11 -21 -25 -36 -36 -39 -87 -36 -131 8 -19 19 -34 41
-34 50 0 10 -16 -1 -44 -29 -68 -68 -140 -73 -199 -14 l-30 31 -21 -25 c-12
-14 -32 -30 -45 -37 -57 -29 -141 24 -162 103 -12 44 -8 227 6 260 6 15 1 17
-39 17 -31 0 -46 -4 -46 -13 0 -27 -89 -194 -137 -258 l-51 -67 -4 -133 c-5
-153 -20 -201 -74 -248 -60 -53 -153 -53 -206 -1 -23 24 -28 37 -28 77 0 65
34 119 134 208 54 50 76 76 76 93 l0 24 -34 -30 c-63 -55 -134 -54 -190 4
l-33 34 -12 -23 c-19 -37 -67 -60 -106 -53 -39 8 -85 50 -85 80 0 17 -4 15
-30 -15 -78 -96 -191 -88 -242 16 l-22 44 -28 -49 c-28 -49 -69 -80 -105 -80
-26 0 -80 35 -94 62 -7 13 -18 45 -24 72 l-11 49 -27 -45 c-66 -114 -172 -160
-289 -128 -67 19 -81 56 -37 96 18 17 21 16 59 -5 50 -28 81 -24 98 12 19 40
2 83 -56 140 l-47 46 -60 -102 c-69 -118 -128 -182 -176 -192 -28 -6 -36 -4
-55 19 -31 35 -38 93 -32 263 5 140 5 143 -14 126 -49 -44 -129 -238 -146
-354 l-7 -54 -40 0 c-62 0 -65 13 -62 280 l2 230 34 -3 c58 -4 61 -12 61 -141
l1 -116 32 80 c69 170 139 219 222 154 l25 -20 0 -172 c0 -95 4 -178 9 -186
14 -22 62 34 117 136 41 74 45 88 35 109 -6 14 -11 40 -11 59 0 63 81 125 138
104 30 -11 29 -60 -3 -114 l-24 -42 68 -51 c70 -52 101 -97 101 -149 l0 -28
21 25 c50 61 59 97 59 243 l0 137 -60 0 -60 0 0 34 c0 46 16 57 78 49 l52 -6
0 66 c0 36 3 72 6 81 7 19 38 20 82 5z"/>
<path d="M5081 5974 c-32 -41 -44 -100 -39 -200 4 -103 22 -144 62 -144 30 0
72 48 86 98 17 61 13 192 -8 232 -23 47 -70 54 -101 14z"/>
<path d="M5567 5970 c-49 -57 -61 -234 -22 -309 31 -60 101 -27 126 60 19 67
17 207 -4 247 -24 43 -65 44 -100 2z"/>
<path d="M6413 5978 c-32 -34 -46 -106 -41 -207 5 -99 23 -141 61 -141 59 1
90 64 95 195 2 82 0 106 -15 135 -23 45 -68 53 -100 18z"/>
<path d="M5659 5473 c-53 -56 -85 -103 -99 -146 -15 -49 6 -87 48 -87 37 0 49
10 67 54 15 35 34 216 24 216 -3 0 -21 -17 -40 -37z"/>
</g>
</svg>
