<?xml version="1.0" standalone="no"?>
<!DOCTYPE svg PUBLIC "-//W3C//DTD SVG 20010904//EN"
 "http://www.w3.org/TR/2001/REC-SVG-20010904/DTD/svg10.dtd">
<svg version="1.0" xmlns="http://www.w3.org/2000/svg"
 width="1080.000000pt" height="1080.000000pt" viewBox="0 0 1080.000000 1080.000000"
 preserveAspectRatio="xMidYMid meet">

<g transform="translate(0.000000,1080.000000) scale(0.100000,-0.100000)"
fill="#000000" stroke="none">
<path d="M3518 6307 c-127 -97 -186 -262 -129 -360 17 -31 69 -67 95 -67 20 0
20 -2 -5 56 -40 88 -6 246 66 314 l25 23 0 -324 c0 -292 -5 -386 -26 -456 -10
-36 29 -29 70 12 61 61 66 95 66 471 0 333 0 333 -22 348 -38 27 -91 20 -140
-17z"/>
<path d="M4686 6324 c-3 -9 -6 -45 -6 -81 l0 -66 -52 6 c-62 8 -78 -3 -78 -49
l0 -34 60 0 60 0 0 -137 c0 -146 -9 -182 -59 -243 l-21 -25 0 28 c0 52 -31 97
-101 149 l-68 51 24 42 c32 54 33 103 3 114 -57 21 -138 -41 -138 -104 0 -19
5 -45 11 -59 10 -21 6 -35 -35 -109 -55 -102 -103 -158 -117 -136 -5 8 -9 91
-9 186 l0 172 -25 20 c-83 65 -153 16 -222 -154 l-32 -80 -1 116 c0 129 -3
137 -61 141 l-34 3 -2 -230 c-3 -267 0 -280 62 -280 l40 0 7 54 c17 116 97
310 146 354 19 17 19 14 14 -126 -6 -170 1 -228 32 -263 50 -58 130 2 231 173
l60 102 47 -46 c58 -57 75 -100 56 -140 -17 -36 -48 -40 -98 -12 -38 21 -41
22 -59 5 -44 -40 -30 -77 37 -96 117 -32 223 14 289 128 l27 45 11 -49 c6 -27
17 -59 24 -72 14 -27 68 -62 94 -62 36 0 77 31 105 80 l28 49 22 -44 c51 -104
164 -112 242 -16 26 30 30 32 30 15 0 -30 46 -72 85 -80 39 -7 87 16 106 53
l12 23 33 -34 c56 -58 127 -59 190 -4 l34 30 0 -24 c0 -17 -22 -43 -76 -93
-100 -89 -134 -143 -134 -208 0 -153 222 -156 286 -4 12 30 19 79 22 176 l4
133 51 67 c48 64 137 231 137 258 0 9 15 13 46 13 40 0 45 -2 39 -17 -14 -33
-18 -216 -6 -260 21 -79 105 -132 162 -103 13 7 33 23 45 37 l21 25 30 -31
c59 -59 131 -54 199 14 28 28 44 39 44 29 0 -9 15 -31 34 -50 44 -44 95 -47
131 -8 14 15 25 31 25 36 0 5 5 6 10 3 6 -3 10 -15 10 -25 0 -23 28 -40 67
-40 44 0 53 16 53 95 0 77 28 203 57 257 l17 33 7 -55 c4 -30 12 -97 18 -149
11 -106 32 -141 83 -141 33 0 30 -6 51 126 9 55 26 127 39 160 l23 59 6 -120
c7 -146 22 -196 66 -235 43 -38 83 -39 124 -2 45 40 73 162 38 162 -5 0 -14
-12 -20 -27 -33 -83 -40 -94 -57 -91 -9 2 -25 19 -34 38 -15 29 -18 63 -18
197 l0 162 -26 20 c-36 29 -89 28 -108 -1 -13 -21 -50 -132 -73 -218 -8 -30
-11 -16 -17 88 -9 133 -13 141 -76 157 -35 8 -52 -13 -89 -110 l-30 -80 0 82
c-1 92 -12 107 -74 101 l-32 -3 -5 -180 c-5 -166 -7 -183 -28 -217 -29 -47
-67 -52 -82 -12 -6 14 -10 108 -10 209 l0 184 -40 12 c-34 10 -43 10 -57 -4
-16 -14 -20 -14 -42 4 -33 27 -110 26 -145 -2 -64 -50 -103 -173 -94 -298 7
-91 -10 -134 -49 -129 -59 7 -79 116 -48 263 20 92 19 108 -5 130 -18 16 -26
17 -71 7 -72 -17 -88 -16 -82 6 2 10 -4 29 -14 41 -26 32 -77 22 -98 -19 -19
-37 -19 -55 2 -90 16 -28 16 -31 -10 -97 -15 -37 -42 -93 -60 -123 l-32 -55
-5 180 -5 179 -34 7 c-41 8 -61 2 -61 -18 0 -11 -9 -8 -31 11 -38 32 -99 35
-146 6 -63 -38 -107 -170 -101 -308 3 -79 -16 -122 -56 -122 -39 0 -46 35 -46
235 l0 184 -40 12 c-35 11 -43 10 -57 -4 -14 -14 -18 -14 -42 3 -47 34 -109
30 -154 -10 -47 -41 -76 -113 -86 -213 -9 -89 -28 -142 -66 -177 -28 -27 -51
-21 -65 16 -6 15 -9 108 -8 223 l3 196 75 5 75 5 3 32 3 32 -73 3 -73 3 -3 72
c-3 70 -3 72 -34 82 -44 15 -75 14 -82 -5z m496 -364 c21 -40 25 -171 8 -232
-14 -50 -56 -98 -86 -98 -40 0 -58 41 -62 144 -7 146 28 230 92 224 24 -2 35
-11 48 -38z m485 8 c21 -40 23 -180 4 -247 -25 -87 -95 -120 -126 -60 -22 42
-30 152 -16 222 23 109 100 156 138 85z m846 -8 c15 -29 17 -53 15 -135 -5
-131 -36 -194 -95 -195 -38 0 -56 42 -61 141 -7 149 27 233 93 227 23 -2 34
-11 48 -38z m-816 -539 c-5 -87 -26 -158 -50 -173 -26 -16 -66 -8 -83 17 -27
41 6 114 95 208 19 20 37 37 40 37 2 0 1 -40 -2 -89z"/>
</g>
</svg>
